<svg width="36" height="31" viewBox="0 0 36 31" fill="none" xmlns="http://www.w3.org/2000/svg">
<path d="M20.9164 10.0109C20.6044 10.0109 20.3507 9.75763 20.3507 9.44521V8.48389C20.3507 8.17186 20.604 7.91821 20.9164 7.91821C21.2284 7.91821 21.4821 8.17146 21.4821 8.48389V9.44521C21.4821 9.75763 21.2284 10.0109 20.9164 10.0109Z" fill="#103E13"/>
<path d="M18.5381 10.0109C18.2261 10.0109 17.9724 9.75763 17.9724 9.44521V8.48389C17.9724 8.17186 18.2257 7.91821 18.5381 7.91821C18.8501 7.91821 19.1038 8.17146 19.1038 8.48389V9.44521C19.1034 9.75763 18.8505 10.0109 18.5381 10.0109Z" fill="#103E13"/>
<path d="M16.16 10.0109C15.848 10.0109 15.5944 9.75763 15.5944 9.44521V8.48389C15.5944 8.17186 15.8476 7.91821 16.16 7.91821C16.4721 7.91821 16.7257 8.17146 16.7257 8.48389V9.44521C16.7257 9.75763 16.4725 10.0109 16.16 10.0109Z" fill="#103E13"/>
<path d="M20.9164 13.942C20.6044 13.942 20.3507 13.6888 20.3507 13.3763V12.4154C20.3507 12.1034 20.604 11.8497 20.9164 11.8497C21.2284 11.8497 21.4821 12.103 21.4821 12.4154V13.3763C21.4821 13.6888 21.2284 13.942 20.9164 13.942Z" fill="#103E13"/>
<path d="M18.5381 13.942C18.2261 13.942 17.9724 13.6888 17.9724 13.3763V12.4154C17.9724 12.1034 18.2257 11.8497 18.5381 11.8497C18.8501 11.8497 19.1038 12.103 19.1038 12.4154V13.3763C19.1034 13.6888 18.8505 13.942 18.5381 13.942Z" fill="#103E13"/>
<path d="M16.16 13.942C15.848 13.942 15.5944 13.6888 15.5944 13.3763V12.4154C15.5944 12.1034 15.8476 11.8497 16.16 11.8497C16.4721 11.8497 16.7257 12.103 16.7257 12.4154V13.3763C16.7257 13.6888 16.4725 13.942 16.16 13.942Z" fill="#103E13"/>
<path d="M20.9164 17.8733C20.6044 17.8733 20.3507 17.6201 20.3507 17.3076V16.3463C20.3507 16.0343 20.604 15.7806 20.9164 15.7806C21.2284 15.7806 21.4821 16.0339 21.4821 16.3463V17.3076C21.4821 17.6201 21.2284 17.8733 20.9164 17.8733Z" fill="#103E13"/>
<path d="M18.5381 17.8733C18.2261 17.8733 17.9724 17.6201 17.9724 17.3076V16.3463C17.9724 16.0343 18.2257 15.7806 18.5381 15.7806C18.8501 15.7806 19.1038 16.0339 19.1038 16.3463V17.3076C19.1034 17.6201 18.8505 17.8733 18.5381 17.8733Z" fill="#103E13"/>
<path d="M16.16 17.8733C15.848 17.8733 15.5944 17.6201 15.5944 17.3076V16.3463C15.5944 16.0343 15.8476 15.7806 16.16 15.7806C16.4721 15.7806 16.7257 16.0339 16.7257 16.3463V17.3076C16.7257 17.6201 16.4725 17.8733 16.16 17.8733Z" fill="#103E13"/>
<path d="M20.9164 21.8037C20.6044 21.8037 20.3507 21.5505 20.3507 21.2381V20.2767C20.3507 19.9647 20.604 19.7111 20.9164 19.7111C21.2284 19.7111 21.4821 19.9643 21.4821 20.2767V21.2381C21.4821 21.5505 21.2284 21.8037 20.9164 21.8037Z" fill="#103E13"/>
<path d="M18.5381 21.8037C18.2261 21.8037 17.9724 21.5505 17.9724 21.2381V20.2767C17.9724 19.9647 18.2257 19.7111 18.5381 19.7111C18.8501 19.7111 19.1038 19.9643 19.1038 20.2767V21.2381C19.1034 21.5505 18.8505 21.8037 18.5381 21.8037Z" fill="#103E13"/>
<path d="M16.16 21.8037C15.848 21.8037 15.5944 21.5505 15.5944 21.2381V20.2767C15.5944 19.9647 15.8476 19.7111 16.16 19.7111C16.4721 19.7111 16.7257 19.9643 16.7257 20.2767V21.2381C16.7257 21.5505 16.4725 21.8037 16.16 21.8037Z" fill="#103E13"/>
<path d="M20.9164 25.735C20.6044 25.735 20.3507 25.4817 20.3507 25.1693V24.2084C20.3507 23.8964 20.604 23.6427 20.9164 23.6427C21.2284 23.6427 21.4821 23.896 21.4821 24.2084V25.1693C21.4821 25.4813 21.2284 25.735 20.9164 25.735Z" fill="#103E13"/>
<path d="M18.5381 25.735C18.2261 25.735 17.9724 25.4817 17.9724 25.1693V24.2084C17.9724 23.8964 18.2257 23.6427 18.5381 23.6427C18.8501 23.6427 19.1038 23.896 19.1038 24.2084V25.1693C19.1034 25.4813 18.8505 25.735 18.5381 25.735Z" fill="#103E13"/>
<path d="M16.16 25.735C15.848 25.735 15.5944 25.4817 15.5944 25.1693L15.5948 24.2084C15.5948 23.8964 15.848 23.6427 16.1604 23.6427C16.4725 23.6427 16.7261 23.896 16.7261 24.2084V25.1693C16.7257 25.4813 16.4725 25.735 16.16 25.735Z" fill="#103E13"/>
<path d="M0.000474596 29.6471C0.000474596 29.9592 0.253724 30.2128 0.566149 30.2128H35.0139C35.3259 30.2128 35.5796 29.9596 35.5796 29.6471C35.5796 29.3351 35.3263 29.0815 35.0139 29.0815H33.9682V12.8402C33.9682 12.5281 33.715 12.2745 33.4025 12.2745L24.1668 12.2749V0.565762C24.1668 0.367742 24.0635 0.184709 23.8946 0.0821389C23.7262 -0.0208145 23.5156 -0.0271258 23.3404 0.0639933L12.8401 5.53098C12.6527 5.62841 12.5359 5.8217 12.5359 6.03275V16.2604H2.37388C2.06186 16.2604 1.8082 16.5137 1.8082 16.8261V29.0816H0.564887C0.252866 29.0812 0 29.3344 0 29.6468L0.000474596 29.6471ZM24.167 20.8422H32.8374V29.0819L24.167 29.0815V20.8422ZM24.167 16.9113H32.8374V19.7113L24.167 19.7109V16.9113ZM24.167 13.4056H32.8374V15.7808H24.167V13.4056ZM13.6667 6.37622L23.0353 1.49818V29.081H13.6667V6.37622ZM5.73588 24.5635C5.73588 23.3895 6.66603 22.4341 7.80959 22.4341C8.95314 22.4341 9.88371 23.3891 9.88371 24.5635V29.0817H5.73588V24.5635ZM2.93952 17.3916H12.5358V29.0815H11.015V24.5633C11.015 22.7657 9.57762 21.303 7.80959 21.303C6.04236 21.303 4.60495 22.7653 4.60495 24.5633V29.0815H2.93952V17.3916Z" fill="#103E13"/>
</svg>
